<svg id="Glyph" height="512" viewBox="0 0 512 512" width="512" xmlns="http://www.w3.org/2000/svg"><path d="m56 480h304v-88a8 8 0 0 1 8-8h88v-320h-110.385l13.041 19.562a8 8 0 0 1 -6.656 12.438h-192a8 8 0 0 1 -7.428-10.971l8.412-21.029h-104.984zm136-328h128a8 8 0 0 1 0 16h-128a8 8 0 0 1 0-16zm-80 48h288a8 8 0 0 1 0 16h-288a8 8 0 0 1 0-16zm0 48h288a8 8 0 0 1 0 16h-288a8 8 0 0 1 0-16zm0 48h288a8 8 0 0 1 0 16h-288a8 8 0 0 1 0-16zm0 48h168a8 8 0 0 1 0 16h-168a8 8 0 0 1 0-16z"/><path d="m340.184 32h-165.236l7.708 11.562a8 8 0 0 1 .772 7.409l-11.612 29.029h165.236l-7.708-11.562a8 8 0 0 1 -.772-7.409z"/><path d="m444.687 400h-68.687v68.687z"/></svg>